/* XPM */
static char*helpbook_open[]={
"16 14 4 1",
"a c #7f7f7f",
"# c #000000",
". c None",
"b c #ffffff",
"..##............",
".#ab#....###....",
".#abb#.##bb#....",
".#abbb#abbb###..",
".#abbb#bbbb#a#..",
".#abbb#abbb#a#..",
".#abbb#bbbb#a#..",
".#abbb#abbb#a#..",
".#abbb#bbbb#a#..",
"..#abb#abb##a#..",
"...#ab#b##bba#..",
"....#a##aaaaa#..",
"....##a#######..",
".....##........."};
