/* XPM */
static char*mini[]={
"16 14 7 1",
"a c #008000",
"e c #7f7f7f",
"# c #000000",
"b c #ffffc0",
". c None",
"c c #00c000",
"d c #ffffff",
".......##.......",
".....##aa#......",
"...##bbaaa#.....",
".##aabbbaaa#....",
"#ccaaabbaaaa#...",
"##ccaaaabbaaa#..",
"#a#ccaaabbaaaa#.",
"#aa#ccaaaaaa##..",
".#aa#ccaaa##de..",
"..#aa#cc##ddee#.",
"...#aa##ddee##..",
"....#a#dee##....",
".....##e##......",
"......##........"};
