/* XPM */
static char*showtabview[]={
"22 22 9 1",
"g c #008000",
"a c #000080",
"# c #000000",
"b c #0000c0",
"e c #303030",
"c c #0000ff",
". c None",
"f c #00c000",
"d c #ffffff",
"......................",
"......................",
"........############..",
"........#abbbcccccc#..",
"........#aaabbbbccc#..",
"........############..",
"........#dddddddddd#..",
"....#...#dddddddddd#..",
"...##...#deeeeeeedd#..",
"..#f###.#dddddddddd#..",
".#ffffff#deeeeedddd#..",
"#ffggfgf#dddddddddd#..",
"#ggggggg#deeeeeeedd#..",
".#gggggg#dddddddddd#..",
"..#g###.#deeedddddd#..",
"...##...#dddddddddd#..",
"....#...#deeeeeeddd#..",
"........#dddddddddd#..",
"........#dddddddddd#..",
"........############..",
"......................",
"......................"};
