/* XPM */
static char*hidetree[]={
"22 22 6 1",
"# c #808080",
"d c #c3c3c3",
"b c #000000",
"c c #303030",
". c None",
"a c #ffffff",
"......................",
"......................",
"..##################..",
".#aaaaaaaaa#aaaaaaaaa.",
".#aaaaaaaaa#abbbbbaa#.",
".#acaabbbaa#aaaaaaaaa.",
".#accccccaa#aaaaabaa#.",
".#acaaaaaaa#aaaaabbaa.",
".#acaacccabbbbbbbbaba.",
".#accccccaaaaaaaaadab.",
".#acaaaaaaadddddd.ddab",
".#acaacccaddddddd.ddab",
".#accccccabbbbbbbbdab.",
".#acaaaaaaa#aaaaabab#.",
".#acaacccaa#aaaaabbaa.",
".#accccccaa#abababab#.",
".#acaaaaaaa#aaaaaaaaa.",
".#acaaaaaaa#abababab#.",
".#aaaaaaaaa#aaaaaaaaa.",
"..##################..",
"......................",
"......................"};
