/* XPM */
static char*hidetabview[]={
"22 22 9 1",
"g c #008000",
"a c #000080",
"# c #000000",
"b c #0000c0",
"e c #303030",
"c c #0000ff",
". c None",
"f c #00c000",
"d c #ffffff",
"......................",
"......................",
"..##################..",
"..#aaabbbbbcccccccc#..",
"..#aaaaaabbbbbbcccc#..",
"..##################..",
"..#ddddd#dddddddddd#..",
"..#dd#dd#dddddddddd#..",
"..#dd##d#deeeeeeedd#..",
".#####f##dddddddddd#..",
"ffffffff#deeeeedddd#..",
"gfgfgfgff#ddddddddd#..",
"ggggggggg#eeeeeeedd#..",
"gggggggg#dddddddddd#..",
".#####g##deeedddddd#..",
"..#dd##d#dddddddddd#..",
"..#dd#dd#deeeeeeddd#..",
"..#ddddd#dddddddddd#..",
"..#ddddd#dddddddddd#..",
"..##################..",
"......................",
"......................"};
