/* XPM */
static char*notree[]={
"22 22 5 1",
"a c #008000",
". c None",
"b c #00c000",
"c c #a26c25",
"# c #ff0000",
"......................",
"......................",
"...#.....aaaa.....#...",
"..###..aaaaaaaa..###..",
"...###aaabaabaaa###...",
"....###accaacca###....",
"....a###acbcca###a....",
"...aaa###cbca###aaa...",
"...aaaa###cc###bcba...",
"...aaaac######bccaa...",
"...aaaacb####cccbaa...",
"....aaabc####aaaaa....",
".....aaa######aaa.....",
".......###cc###.......",
"......###cccc###......",
".....###.cccc.###.....",
"....###..cccc..###....",
"...###...cccc...###...",
"..###....cccc....###..",
"...#....cccccc....#...",
"......................",
"......................"};
