/* XPM */
static char*hidetree[]={
"22 22 7 1",
"e c #008000",
"# c #000000",
"a c #0000c0",
"c c #303030",
". c None",
"d c #00c000",
"b c #ffffff",
"......................",
"......................",
"..##################..",
"..#aaaaaaaaaaaaaaaa#..",
"..#aaaaaaaaaaaaaaaa#..",
"..##################..",
"..#bbbbb#bbbbbbbbbb#..",
"..#bb#bb#bbbbbbbbbb#..",
"..#bb##b#bcccccccbb#..",
"######d##bbbbbbbbbb#..",
"dddddddd#bcccccbbbb#..",
"ededededd#bbbbbbbbb#..",
"eeeeeeeee#cccccccbb#..",
"eeeeeeee#bbbbbbbbbb#..",
"######e##bcccbbbbbb#..",
"..#bb##b#bbbbbbbbbb#..",
"..#bb#bb#bccccccbbb#..",
"..#bbbbb#bbbbbbbbbb#..",
"..#bbbbb#bbbbbbbbbb#..",
"..##################..",
"......................",
"......................"};
