/* XPM */
static char*khelpcenter[]={
"32 32 11 1",
"g c #808080",
"e c #008000",
"f c #004000",
"# c #000000",
"c c #ffff00",
"b c #ffffc0",
". c None",
"h c #585858",
"i c #a0a0a4",
"d c #00c000",
"a c #ffffff",
"................................",
"................................",
"............######..............",
"...........#aaaaaa##............",
"..........#aabbbbbc###..........",
"..........#abb##bbc#dd##........",
".........#aabb##bbcc#edd##......",
".........#aabb##bbcc#eeedd##....",
".........#aabb##bbcc#eeeeedd##..",
".........#aabbbbbbcc#eeeeeeedd#.",
"........#d#aab##bcc#eeeeeeeeef#.",
".......#dee#ab##bc#eeeeeeeeef##.",
"......#deee#aabbcc#eeeeeeeef#.#.",
".....#deeeee#accc#eeeeeeeef#..#.",
"....#deeeeeee####eeeeeeeef#...#.",
"...#deeeeeeee#ag#eeeeeeef#....e.",
"..#deeeeeeee###h##eeeeef#....e#.",
".#deeeeeeeeee#ag#eeeeef#....e#..",
"##ffeeeeeeee###h##eeef#....e#...",
"####ffeeeeeee#ag#ffff#i...e#....",
"##..##ffeeeee####ffffii..e#.....",
"##.aa.##ffeeeefffff#iii.e#......",
"##.aaaa.##ffeeffff#iiiie#.......",
"#e.aaaaaa.##ffeff#iiiif#........",
"##ee.aaaaaa.##ff#iiiif#.........",
"..##ee.aaaaaa.##iiiif#..........",
"....##ee.aaaaaaiiiif#...........",
"......##ee.aaaaiiif#............",
"........##ee.aaiif#.............",
"..........##ee.if#..............",
"............##ee#...............",
"..............##................"};
