/* XPM */
static char*showtree[]={
"22 22 7 1",
"e c #008000",
"# c #000000",
"a c #0000c0",
"c c #303030",
". c None",
"d c #00c000",
"b c #ffffff",
"......................",
"......................",
"........############..",
"........#aaaaaaaaaa#..",
"........#aaaaaaaaaa#..",
"........############..",
"........#bbbbbbbbbb#..",
"....#...#bbbbbbbbbb#..",
"...##...#bcccccccbb#..",
"..#d###.#bbbbbbbbbb#..",
".#dddddd#bcccccbbbb#..",
"#ddeeded#bbbbbbbbbb#..",
"#eeeeeee#bcccccccbb#..",
".#eeeeee#bbbbbbbbbb#..",
"..#e###.#bcccbbbbbb#..",
"...##...#bbbbbbbbbb#..",
"....#...#bccccccbbb#..",
"........#bbbbbbbbbb#..",
"........#bbbbbbbbbb#..",
"........############..",
"......................",
"......................"};
