/* XPM */
static char*tree[]={
"22 22 4 1",
"# c #008000",
". c None",
"a c #00c000",
"b c #a26c25",
"......................",
"......................",
".........####.........",
".......########.......",
".....####a##a####.....",
"....####bb##bb####....",
"....#####babb#####....",
"...###ab#bab##b####...",
"...#####bbbb#bbaba#...",
"...####bbaabababb##...",
"...####babbbbbbba##...",
"....###abbbbb#####....",
".....####bbbb####.....",
".......##bbbb##.......",
".........bbbb.........",
".........bbbb.........",
".........bbbb.........",
".........bbbb.........",
".........bbbb.........",
"........bbbbbb........",
"......................",
"......................"};
