/* XPM */
static char*showtree[]={
"22 22 6 1",
"# c #808080",
"d c #a0a0a0",
"b c #000000",
"c c #303030",
". c None",
"a c #ffffff",
"......................",
"......................",
"..##################..",
".#aaaaaaaaa#aaaaaaaaa.",
".#aaaaaaaaa#abbbbbaa#.",
".#acaabbbaa#aaaaaaaaa.",
".#accccccaa#aaabaaaa#.",
".#acaaaaaaa#aacbaaaaa.",
".#acaacccaa#acabbbbbb.",
".#accccccaadca.aaaaaa.",
".#acaaaaaaaca.........",
".#acaacccaaba.........",
".#accccccaa#ba.bbbbbb.",
".#acaaaaaaa#ababaaaa#.",
".#acaacccaa#aabbaaaaa.",
".#accccccaa#abababab#.",
".#acaaaaaaa#aaaaaaaaa.",
".#acaaaaaaa#abababab#.",
".#aaaaaaaaa#aaaaaaaaa.",
"..##################..",
"......................",
"......................"};
